<svg width="16" height="17" viewBox="0 0 16 17" fill="none" xmlns="http://www.w3.org/2000/svg">
<path fill-rule="evenodd" clip-rule="evenodd" d="M12 7C12 9.76142 9.76142 12 7 12C4.23858 12 2 9.76142 2 7C2 4.23858 4.23858 2 7 2C9.76142 2 12 4.23858 12 7ZM10.6048 13.0017C9.55186 13.6355 8.3185 14 7 14C3.13401 14 0 10.866 0 7C0 3.13401 3.13401 0 7 0C10.866 0 14 3.13401 14 7C14 8.82763 13.2996 10.4917 12.1525 11.7383L15.6569 15.2426C16.0474 15.6332 16.0474 16.2663 15.6569 16.6569C15.2663 17.0474 14.6332 17.0474 14.2426 16.6569L10.7071 13.1213C10.6694 13.0836 10.6352 13.0435 10.6048 13.0017Z" fill="#4E82EA"/>
</svg>
