<svg width="20" height="20" viewBox="0 0 20 20" fill="none" xmlns="http://www.w3.org/2000/svg">
<path d="M19.5 17V9.02123C19.5 7.75027 18.896 6.55494 17.8728 5.80101L11.1864 0.874188C10.4809 0.354337 9.51911 0.354338 8.8136 0.874189L2.1272 5.80101C1.10401 6.55494 0.5 7.75027 0.5 9.02123V17C0.5 18.6569 1.84315 20 3.5 20H6.25C6.80228 20 7.25 19.5523 7.25 19V16C7.25 14.8954 8.14543 14 9.25 14H10.75C11.8546 14 12.75 14.8954 12.75 16V19C12.75 19.5523 13.1977 20 13.75 20H16.5C18.1569 20 19.5 18.6569 19.5 17Z" fill="#4E82EA"/>
</svg>
